<svg xmlns="http://www.w3.org/2000/svg" width="268.2" height="101.292" viewBox="0 0 268.2 101.292">
  <g id="Group_2887" data-name="Group 2887" transform="translate(-4.542 -1.716)">
    <path id="Path_18590" data-name="Path 18590" d="M75.49,51.353c2.958,0,4.18-.964,4.18-2.379,0-1.479-2.379-1.929-5.337-2.443-5.273-.836-12.732-2.058-12.732-10.1,0-5.466,4.694-10.224,13.311-10.224A21.87,21.87,0,0,1,87.9,30.325l-3.794,6.559a13.884,13.884,0,0,0-9.132-3.408c-2.315,0-3.923.965-3.923,2.187,0,1.35,1.672,1.608,4.952,2.187,5.273.964,13.119,2.251,13.119,10.675,0,5.916-5.209,10.289-14.147,10.289-5.53,0-11.254-1.865-14.533-4.759l4.116-6.816A19.366,19.366,0,0,0,75.49,51.353Z" transform="translate(-25.374 -11.118)" fill="#0e0048"/>
    <path id="Path_18591" data-name="Path 18591" d="M136.476,26.21c6.688,0,10.868,2.958,12.733,5.723l-6.431,5.98a6.789,6.789,0,0,0-5.852-2.958c-4.116,0-7.267,2.829-7.267,7.524s3.151,7.588,7.267,7.588a6.992,6.992,0,0,0,5.852-3.022l6.431,6.045c-1.865,2.7-6.045,5.723-12.733,5.723-9.71,0-16.977-6.559-16.977-16.333C119.5,32.769,126.766,26.21,136.476,26.21Z" transform="translate(-52.181 -11.118)" fill="#0e0048"/>
    <path id="Path_18592" data-name="Path 18592" d="M180.873,7.375c0-3.151,3.054-5.659,6.205-5.659s5.113,2.508,5.113,5.659a5.659,5.659,0,1,1-11.318,0Zm10.61,8.489v31.06h-9.9V15.863Z" transform="translate(-80.039 0)" fill="#0e0048"/>
    <path id="Path_18593" data-name="Path 18593" d="M225.251,26.21c9.2,0,15.883,6.752,15.883,17.3V45.63H219.013c.579,2.894,3.279,5.53,7.91,5.53a12.3,12.3,0,0,0,7.588-2.636l4.18,6.173c-3.086,2.765-8.231,4.115-12.99,4.115-9.582,0-16.977-6.237-16.977-16.333C208.724,33.476,215.541,26.21,225.251,26.21ZM218.884,39.2h12.8c-.257-2.187-1.865-5.337-6.43-5.337A6.136,6.136,0,0,0,218.884,39.2Z" transform="translate(-92.681 -11.118)" fill="#0e0048"/>
    <path id="Path_18594" data-name="Path 18594" d="M292.974,34.956a7.664,7.664,0,0,0-6.045,3.022V58.041h-9.9V26.982h9.9v3.794a14.038,14.038,0,0,1,10.739-4.565c7.073,0,10.289,4.115,10.289,9.839V58.041h-9.9V40.1C298.054,36.306,296.061,34.956,292.974,34.956Z" transform="translate(-123.685 -11.118)" fill="#0e0048"/>
    <path id="Path_18595" data-name="Path 18595" d="M360.067,26.21c6.688,0,10.868,2.958,12.732,5.723l-6.431,5.98a6.789,6.789,0,0,0-5.852-2.958c-4.116,0-7.267,2.829-7.267,7.524s3.151,7.588,7.267,7.588a6.992,6.992,0,0,0,5.852-3.022L372.8,53.09c-1.865,2.7-6.045,5.723-12.732,5.723-9.71,0-16.977-6.559-16.977-16.333C343.09,32.769,350.357,26.21,360.067,26.21Z" transform="translate(-153.672 -11.118)" fill="#0e0048"/>
    <path id="Path_18596" data-name="Path 18596" d="M418.518,26.21c9.2,0,15.884,6.752,15.884,17.3V45.63H412.28c.579,2.894,3.279,5.53,7.909,5.53a12.3,12.3,0,0,0,7.588-2.636l4.18,6.173c-3.086,2.765-8.231,4.115-12.99,4.115-9.582,0-16.977-6.237-16.977-16.333C401.991,33.476,408.808,26.21,418.518,26.21ZM412.151,39.2h12.8c-.257-2.187-1.865-5.337-6.431-5.337A6.136,6.136,0,0,0,412.151,39.2Z" transform="translate(-180.408 -11.118)" fill="#0e0048"/>
    <path id="Path_18597" data-name="Path 18597" d="M67.76,144.557V130.474H62.615v-8.617H67.76v-8.488H77.6v8.488h6.3v8.617H77.6v11.318c0,1.8,1.029,3.151,2.765,3.151a3.847,3.847,0,0,0,2.508-.772l1.929,7.46c-1.222,1.158-3.665,2.058-7.331,2.058C71.168,153.688,67.76,150.537,67.76,144.557Z" transform="translate(-26.36 -50.681)" fill="#0e0048"/>
    <path id="Path_18598" data-name="Path 18598" d="M123.547,160.1c-7.652,0-13.762-5.787-13.762-16.334,0-10.16,5.981-16.27,13.762-16.27a11.449,11.449,0,0,1,9.2,4.437v-3.666h9.839v31.06h-9.839v-3.6A11.862,11.862,0,0,1,123.547,160.1Zm3.215-23.793c-3.923,0-6.817,2.83-6.817,7.46s2.894,7.588,6.817,7.588a8.156,8.156,0,0,0,5.98-2.83v-9.453A8.094,8.094,0,0,0,126.762,136.309Z" transform="translate(-47.771 -57.095)" fill="#0e0048"/>
    <path id="Path_18599" data-name="Path 18599" d="M182.157,141.778V107.245h9.9v31.767c0,1.8,1.029,3.151,2.7,3.151a4.056,4.056,0,0,0,2.572-.772l1.865,7.46c-1.222,1.158-3.665,2.058-7.267,2.058C185.565,150.909,182.157,147.758,182.157,141.778Z" transform="translate(-80.622 -47.901)" fill="#0e0048"/>
    <path id="Path_18600" data-name="Path 18600" d="M232.675,127.5c9.2,0,15.884,6.752,15.884,17.3v2.122H226.437c.579,2.894,3.28,5.531,7.91,5.531a12.3,12.3,0,0,0,7.588-2.637l4.18,6.174c-3.087,2.765-8.232,4.115-12.99,4.115-9.582,0-16.977-6.238-16.977-16.334C216.148,134.766,222.964,127.5,232.675,127.5Zm-6.366,12.99h12.8c-.257-2.186-1.865-5.337-6.431-5.337A6.136,6.136,0,0,0,226.308,140.489Z" transform="translate(-96.051 -57.095)" fill="#0e0048"/>
    <path id="Path_18601" data-name="Path 18601" d="M299.416,136.245a7.663,7.663,0,0,0-6.045,3.023v20.064h-9.9v-31.06h9.9v3.794a14.038,14.038,0,0,1,10.739-4.566c7.073,0,10.289,4.116,10.289,9.839v21.993h-9.9V141.389C304.5,137.6,302.5,136.245,299.416,136.245Z" transform="translate(-126.609 -57.095)" fill="#0e0048"/>
    <path id="Path_18602" data-name="Path 18602" d="M352.7,144.557V130.474h-5.145v-8.617H352.7v-8.488h9.839v8.488h6.3v8.617h-6.3v11.318c0,1.8,1.029,3.151,2.765,3.151a3.847,3.847,0,0,0,2.508-.772l1.929,7.46c-1.222,1.158-3.665,2.058-7.331,2.058C356.107,153.688,352.7,150.537,352.7,144.557Z" transform="translate(-155.699 -50.681)" fill="#0e0048"/>
    <path id="Path_18603" data-name="Path 18603" d="M409.434,127.5c9.2,0,15.883,6.752,15.883,17.3v2.122H403.2c.579,2.894,3.279,5.531,7.909,5.531a12.3,12.3,0,0,0,7.588-2.637l4.18,6.174c-3.086,2.765-8.231,4.115-12.99,4.115-9.582,0-16.977-6.238-16.977-16.334C392.907,134.766,399.724,127.5,409.434,127.5Zm-6.367,12.99h12.8c-.257-2.186-1.865-5.337-6.431-5.337A6.137,6.137,0,0,0,403.067,140.489Z" transform="translate(-176.285 -57.095)" fill="#0e0048"/>
    <path id="Path_18604" data-name="Path 18604" d="M469.66,128.271v3.923a13.539,13.539,0,0,1,9.71-4.694v9.582a8.024,8.024,0,0,0-2.444-.321c-2.573,0-5.981,1.093-7.267,2.894v19.678h-9.9v-31.06Z" transform="translate(-206.629 -57.095)" fill="#0e0048"/>
    <path id="Path_18605" data-name="Path 18605" d="M23.384,17.789l7.717,5.08-2.315,3.987L20.748,22.8l-.514,8.489H15.41L14.9,22.8,6.857,26.856,4.542,22.8l7.717-5.016-7.717-5.08L6.857,8.722,14.9,12.773l.514-8.231h4.823l.514,8.231,8.038-4.051L31.1,12.709Z" transform="translate(0 -1.283)" fill="#0e0048"/>
  </g>
</svg>
